<?xml version="1.0" encoding="utf-8"?>
<!-- Generator: Adobe Illustrator 21.0.0, SVG Export Plug-In . SVG Version: 6.00 Build 0)  -->
<svg version="1.1" id="Warstwa_1" xmlns="http://www.w3.org/2000/svg" xmlns:xlink="http://www.w3.org/1999/xlink" x="0px" y="0px"
	 width="128px" height="128px" viewBox="0 0 128 128" style="enable-background:new 0 0 128 128;" xml:space="preserve">
<style type="text/css">
	.st0{fill:url(#SVGID_1_);}
	.st1{fill:url(#SVGID_2_);}
	.st2{fill-rule:evenodd;clip-rule:evenodd;fill:url(#SVGID_3_);}
	.st3{fill-rule:evenodd;clip-rule:evenodd;fill:url(#SVGID_4_);}
</style>
<g>
	<g>
		<g>
			<linearGradient id="SVGID_1_" gradientUnits="userSpaceOnUse" x1="25.10821" y1="120.49798" x2="116.10822" y2="44.99798">
				<stop  offset="0" style="stop-color:#E64021"/>
				<stop  offset="0.50251" style="stop-color:#EB6B1D"/>
				<stop  offset="1" style="stop-color:#E53E21"/>
			</linearGradient>
			<path class="st0" d="M46.64436,72.44632c0,23.97664,18.24758,43.48344,40.67782,43.48344S128,96.42296,128,72.44632
				c0-23.75205-39.27132-60.91732-39.66898-61.29287l-0.00736-0.00368c-0.28351-0.26878-0.64802-0.40501-1.01253-0.40501
				s-0.72902,0.13623-1.01253,0.40133C71.57278,25.16682,46.64436,53.85632,46.64436,72.44632z M87.32218,14.15789l2.27174,2.28279
				c5.92052,5.94998,35.4587,36.61666,35.4587,56.00564c0,22.38973-16.92577,40.60049-37.73045,40.60049
				S49.59174,94.83605,49.59174,72.44632c0-19.38898,29.53817-50.05566,35.4587-56.00564L87.32218,14.15789z"/>
		</g>
		<g>
			<linearGradient id="SVGID_2_" gradientUnits="userSpaceOnUse" x1="23.90253" y1="119.04477" x2="114.90253" y2="43.54477">
				<stop  offset="0" style="stop-color:#E64021"/>
				<stop  offset="0.50251" style="stop-color:#EB6B1D"/>
				<stop  offset="1" style="stop-color:#E53E21"/>
			</linearGradient>
			<path class="st1" d="M64.88642,69.93525c-0.81738,0-1.47461,0.63697-1.4967,1.41754
				c-0.00552,0.15832-0.3148,11.7895,8.83292,21.33302c0.73823,0.76216,2.20731,0,2.22204-0.01105
				c0.46944-0.44919,0.49153-1.37335-0.06075-1.96614c-7.84248-8.27327-8.06708-18.14081-8.06708-19.2417v-0.05891
				C66.33157,70.60536,65.7038,69.95734,64.88642,69.93525z"/>
		</g>
	</g>
	<g>
		<linearGradient id="SVGID_3_" gradientUnits="userSpaceOnUse" x1="8.58947" y1="100.58797" x2="99.58947" y2="25.08797">
			<stop  offset="0" style="stop-color:#E64021"/>
			<stop  offset="0.50251" style="stop-color:#EB6B1D"/>
			<stop  offset="1" style="stop-color:#E53E21"/>
		</linearGradient>
		<path class="st2" d="M38.77058,94.339v-3.04127c-7.14476-0.39028-12.83884-6.32922-12.83884-13.57154
			c0-7.24233,5.69409-13.18127,12.83884-13.57155v-3.04126c-8.81819,0.39765-15.8709,7.69521-15.8709,16.61281
			S29.95239,93.94135,38.77058,94.339z"/>
	</g>
	<g>
		<linearGradient id="SVGID_4_" gradientUnits="userSpaceOnUse" x1="6.85333" y1="98.4954" x2="97.85332" y2="22.9954">
			<stop  offset="0" style="stop-color:#E64021"/>
			<stop  offset="0.50251" style="stop-color:#EB6B1D"/>
			<stop  offset="1" style="stop-color:#E53E21"/>
		</linearGradient>
		<path class="st3" d="M14.19747,108.3045c1.43227,1.42859,3.80158,1.62373,5.41978,0.46392l5.10866-3.63773l0.41053,0.21723
			c1.60348,0.83948,3.3487,1.55746,5.1915,2.13551l0.44367,0.13623l1.01621,6.1083c0.34426,2.04346,2.09685,3.52728,4.16977,3.52728
			h2.81298v-3.00076h-2.79641c-0.59647,0-1.09169-0.42342-1.1819-1.00885l-1.17637-7.05824
			c-0.09941-0.5891-0.53388-1.06407-1.10826-1.20766c-2.44479-0.63329-4.82883-1.61268-7.08769-2.90504
			c-0.49706-0.29087-1.19846-0.25405-1.63109,0.06628l-5.90211,4.20107c-0.63513,0.39765-1.15428,0.25037-1.54272-0.13255
			l-5.01477-5.01477c-0.40133-0.40133-0.46392-1.02357-0.15096-1.50959l4.15872-5.83952
			c0.34794-0.48969,0.37371-1.14508,0.06627-1.66791c-1.36599-2.27543-2.38956-4.70918-3.04126-7.23129
			c-0.15648-0.56702-0.63513-1.00885-1.21687-1.10826l-7.1153-1.21135c-0.57254-0.08836-0.9978-0.58543-0.9978-1.18189v-7.08401
			c0-0.59647,0.42526-1.09353,1.01069-1.1819l7.00669-1.17821c0.60015-0.1031,1.08248-0.54124,1.22792-1.12299
			c0.6517-2.59207,1.64766-5.03687,2.95842-7.26442c0.29823-0.50811,0.26878-1.15244-0.07916-1.63109l-4.1937-5.89475
			c-0.32769-0.47496-0.27246-1.13035,0.12519-1.53904l5.02029-5.01845c0.2651-0.26878,1.02725-0.5302,1.56113-0.11782
			l5.78797,4.12374c0.48969,0.34978,1.14692,0.37556,1.66975,0.06628c2.27358-1.36599,4.70733-2.38956,7.22576-3.04126
			c0.5707-0.15833,1.01068-0.63697,1.11378-1.21503l1.20951-7.11715c0.08837-0.57438,0.58358-0.9978,1.18005-0.9978h2.91424
			v-3.01549h-2.94737c-2.07292,0-3.82551,1.48013-4.16977,3.5236l-1.05303,6.17825l-0.44183,0.13623
			c-1.83728,0.57806-3.63221,1.33285-5.3351,2.24965l-0.41422,0.2246l-5.00925-3.60828
			c-1.6182-1.16348-4.02802-0.97202-5.43451,0.46024l-5.03502,5.01846c-1.4654,1.4654-1.6587,3.75187-0.45656,5.43819
			l3.63405,5.10682l-0.21539,0.40869c-0.8855,1.69-1.62188,3.49782-2.18522,5.37192l-0.13439,0.4492l-6.04755,1.0162
			C1.48197,70.53172,0,72.28799,0,74.36092v7.08401c0,2.07292,1.48197,3.82919,3.52544,4.17161l6.17826,1.05303l0.13807,0.44183
			c0.56886,1.82623,1.32549,3.62301,2.24965,5.3351l0.22276,0.41606L8.7243,97.85522c-1.20399,1.69-1.01253,3.97647,0.45656,5.43083
			L14.19747,108.3045z"/>
	</g>
</g>
</svg>
