<?xml version="1.0" encoding="utf-8"?>
<!-- Generator: Adobe Illustrator 21.0.0, SVG Export Plug-In . SVG Version: 6.00 Build 0)  -->
<svg version="1.1" id="Warstwa_1" xmlns="http://www.w3.org/2000/svg" xmlns:xlink="http://www.w3.org/1999/xlink" x="0px" y="0px"
	 width="128px" height="128px" viewBox="0 0 128 128" style="enable-background:new 0 0 128 128;" xml:space="preserve">
<style type="text/css">
	.st0{fill:url(#SVGID_1_);}
</style>
<g>
	<linearGradient id="SVGID_1_" gradientUnits="userSpaceOnUse" x1="101.65426" y1="24.75899" x2="29.93551" y2="103.509">
		<stop  offset="0" style="stop-color:#E64021"/>
		<stop  offset="0.50251" style="stop-color:#EB6B1D"/>
		<stop  offset="1" style="stop-color:#E53E21"/>
	</linearGradient>
	<path class="st0" d="M39.68022,109c-4.37308,0-8.80239-2.02137-13.07707-6.06693
		c-7.20272-7.84653-6.81053-17.15777,0.99663-24.96212l55.14213-55.14775c3.74052-3.73912,7.93649-4.07648,10.79986-3.70819
		c3.27383,0.42733,6.59265,2.04667,8.8783,4.33512c2.51617,2.29689,4.03009,5.67896,4.11584,9.24096
		c0.08294,3.711-1.36491,7.24489-4.07367,9.95223l-41.28772,41.2821c-1.1878,1.18921-3.64353,3.28368-6.74025,3.92747
		c-3.10234,0.63537-6.07536-0.34579-8.59153-2.85353c-1.69525-1.70088-6.67137-7.79873,0.42873-14.89181
		c0,0,27.26884-27.18309,27.53452-27.45018c1.33821-1.24825,3.35255-1.2117,4.61767,0.04217
		c1.24966,1.25106,1.28761,3.264,0.08856,4.58815l-0.65083,0.7169l-0.02952-0.01968
		c-0.41608,0.42733-0.88277,0.90526-0.88277,0.90526l-0.01265,0.01406l-25.9728,25.8983
		c-1.18218,1.18078-1.781,2.23785-1.77959,3.14592c0.00141,1.00647,0.78016,1.77959,1.34946,2.3475
		c0.7675,0.7675,1.32697,1.26792,2.12258,1.26792c0.97836,0,2.3011-0.80686,3.82346-2.33344l41.28912-41.28209
		c1.41412-1.41412,2.16897-3.22745,2.1268-5.10825c-0.03655-1.77397-0.77032-3.40456-2.06495-4.59377
		c-1.26371-1.26511-3.67024-2.58927-6.04725-2.58927c-1.64746,0-3.11078,0.62975-4.34637,1.86675L32.29336,82.66875
		c-5.43718,5.42875-5.74221,10.39081-0.96289,15.61433c5.80125,5.48216,10.87436,5.47654,16.39448-0.05061l42.51488-42.63717
		c0.61429-0.62412,1.44083-0.97273,2.32079-0.97554c0.00562,0,0.01125,0,0.01687,0c0.88417,0,1.71774,0.34299,2.34889,0.97273
		c0.62412,0.6185,0.97133,1.45066,0.97273,2.33625c0.00141,0.89402-0.34579,1.73461-0.97836,2.36717l-42.49379,42.62874
		C48.37578,106.97581,44.05611,109,39.68022,109z M91.78467,21.15888c-2.2252,0-4.99298,0.6691-7.51618,3.19371L29.12636,79.50034
		c-7.09729,7.09308-7.44731,14.87775-0.98538,21.91741c7.62583,7.21115,15.51452,7.22521,22.75801-0.01968l42.49379-42.62873
		c0.22491-0.22491,0.34721-0.52291,0.34721-0.83779c-0.0014-0.30644-0.11948-0.5932-0.33596-0.80686
		c-0.22491-0.22491-0.51729-0.3458-0.82654-0.3458c-0.27833-0.08434-0.59039,0.11808-0.80405,0.33736l-42.5205,42.63999
		c-6.37055,6.37898-12.73689,6.39585-19.46027,0.03935c-5.62976-6.14845-5.28256-12.40374,0.97414-18.65622l55.14212-55.14213
		c1.6559-1.6559,3.63229-2.4993,5.87435-2.4993c3.00816,0,5.95588,1.60248,7.54008,3.1909
		c1.70087,1.5575,2.68204,3.73631,2.73124,6.10348c0.05623,2.474-0.92353,4.84961-2.75935,6.68543L58.00751,80.75702
		c-1.99044,1.99326-3.74193,2.96318-5.35143,2.96599h-0.00141c-1.74867,0-2.88868-1.14141-3.64353-1.89767
		c-0.693-0.68879-1.98483-1.97077-1.98623-3.87406c-0.00141-1.50408,0.81108-3.07564,2.41356-4.67812L75.40565,47.3833
		c0.70284-0.72533,1.17796-1.21451,1.52657-1.52938l-0.01968-0.01687c0.42451-0.4695,0.41889-1.17515-0.01265-1.60529
		c-0.43436-0.43576-1.13438-0.4442-1.59264-0.02249l-0.17009-0.18274c-1.09784,1.45066-4.48975,4.82993-13.57047,13.88252
		l-13.77007,13.7279c-5.32894,5.32473-2.55413,9.69921-0.42592,11.83585c2.00169,2.00169,4.22829,2.76357,6.62498,2.26596
		c2.54569-0.52854,4.63313-2.31938,5.65084-3.3399l41.28912-41.2849c2.28845-2.28564,3.5114-5.26007,3.44112-8.37225
		c-0.07169-2.97724-1.32837-5.79422-3.44814-7.73407c-1.99607-1.99607-4.8482-3.38488-7.66518-3.75036
		C92.80801,21.19824,92.3118,21.15888,91.78467,21.15888z"/>
</g>
</svg>
