<?xml version="1.0" encoding="utf-8"?>
<!-- Generator: Adobe Illustrator 21.0.2, SVG Export Plug-In . SVG Version: 6.00 Build 0)  -->
<svg version="1.1" id="Warstwa_1" xmlns="http://www.w3.org/2000/svg" xmlns:xlink="http://www.w3.org/1999/xlink" x="0px" y="0px"
	 width="128px" height="128px" viewBox="0 0 128 128" style="enable-background:new 0 0 128 128;" xml:space="preserve">
<style type="text/css">
	.st0{fill:url(#SVGID_1_);}
</style>
<g>
	<linearGradient id="SVGID_1_" gradientUnits="userSpaceOnUse" x1="112.494" y1="19.333" x2="17.494" y2="112.333">
		<stop  offset="0" style="stop-color:#E64021"/>
		<stop  offset="0.5025" style="stop-color:#EB6B1D"/>
		<stop  offset="1" style="stop-color:#E53E21"/>
	</linearGradient>
	<path class="st0" d="M115.6,28.1H105V12.1c0-4.4-3.6-8-8-8H31c-4.4,0-8,3.6-8,8v16.1H12.4C5.6,28.1,0,33.7,0,40.5V93
		c0,6.8,5.6,12.4,12.4,12.4h4.8c1.1,0,2-0.9,2-2c0-1.1-0.9-2-2-2h-4.8C7.8,101.4,4,97.6,4,93V40.5c0-4.6,3.8-8.4,8.4-8.4h103.1
		c4.6,0,8.4,3.8,8.4,8.4V93c0,4.6-3.8,8.4-8.4,8.4H112c-1.1,0-2,0.9-2,2c0,1.1,0.9,2,2,2h3.6c6.8,0,12.4-5.6,12.4-12.4V40.5
		C128,33.7,122.4,28.1,115.6,28.1 M101,28H27v-16c0-2.2,1.8-4,4-4h66c2.2,0,4,1.8,4,4V28z M88,90H40c-1.1,0-2,0.9-2,2
		c0,1.1,0.9,2,2,2h48c1.1,0,2-0.9,2-2C90,90.9,89.1,90,88,90 M88,104H40c-1.1,0-2,0.9-2,2c0,1.1,0.9,2,2,2h48c1.1,0,2-0.9,2-2
		C90,104.9,89.1,104,88,104 M11.9,43.7c0,2.2,1.8,4,4,4c2.2,0,4-1.8,4-4c0-2.2-1.8-4-4-4C13.7,39.7,11.9,41.5,11.9,43.7 M32.6,43.7
		c0-2.2-1.8-4-4-4c-2.2,0-4,1.8-4,4c0,2.2,1.8,4,4,4C30.8,47.7,32.6,45.9,32.6,43.7 M45.2,43.7c0-2.2-1.8-4-4-4c-2.2,0-4,1.8-4,4
		c0,2.2,1.8,4,4,4C43.4,47.7,45.2,45.9,45.2,43.7 M22,123.9h84V72H22V123.9z M25.8,75.7h76.3v44.8H25.8V75.7z"/>
</g>
</svg>
